<svg width="48" height="34" viewBox="0 0 48 34" fill="none" xmlns="http://www.w3.org/2000/svg">
<g filter="url(#filter0_dd_24_230)">
<g clip-path="url(#clip0_24_230)">
<mask id="mask0_24_230" style="mask-type:luminance" maskUnits="userSpaceOnUse" x="3" y="2" width="42" height="28">
<rect x="3" y="2" width="42" height="28" fill="white"/>
</mask>
<g mask="url(#mask0_24_230)">
<path fill-rule="evenodd" clip-rule="evenodd" d="M3 2V30H45V2H3Z" fill="#2E42A5"/>
<mask id="mask1_24_230" style="mask-type:luminance" maskUnits="userSpaceOnUse" x="3" y="2" width="42" height="28">
<path fill-rule="evenodd" clip-rule="evenodd" d="M3 2V30H45V2H3Z" fill="white"/>
</mask>
<g mask="url(#mask1_24_230)">
</g>
</g>
<g clip-path="url(#clip1_24_230)">
<path d="M62 1H3V30H62V1Z" fill="#009900"/>
<path d="M62 1H3V20.3333H62V1Z" fill="#CC0000"/>
<path d="M9.55556 1H3V30H9.55556V1Z" fill="white"/>
<path d="M6.27774 15.5V15.3389H6.11385V15.0167H5.94996V14.6945H5.62218V15.0167H5.78607V15.3389H5.94996V15.5H6.27774ZM4.63885 15.5V15.1778H4.31107V14.6945H4.14718V14.2111H3.81941V13.7278H3.65552V13.0834H3.9833V13.5667H4.31107V14.05H4.63885V14.5334H4.80274V14.05H5.13052V13.5667H5.4583V13.0834H5.78607V12.6H6.11385V11.9556H5.78607V11.15H5.4583V10.5056H5.13052V11.3111H5.29441V12.1167H5.13052V12.7611H4.80274V13.4056H4.63885V12.7611H4.31107V12.1167H3.9833V11.3111H3.81941V10.6667H3.9833V10.0222H4.31107V9.3778H4.47496V8.73336H4.80274V8.08891H5.13052V8.73336H5.4583V9.3778H5.78607V10.0222H6.11385V10.8278H6.27774V13.2445H5.94996V13.7278H5.62218V14.2111H5.29441V14.6945H5.13052V15.1778H4.80274V15.5H4.63885ZM4.80274 6.96113H5.13052V6.31669H5.4583V5.67224H5.78607V5.0278H6.11385V4.38336H6.27774V3.73891H6.11385V3.09447H5.78607V2.45002H5.4583V1.80558H5.13052V1.16113H4.80274V1.80558H4.47496V2.45002H4.14718V3.09447H3.81941V3.73891H3.65552V4.38336H3.81941V5.0278H4.14718V5.67224H4.47496V6.31669H4.80274V6.96113ZM3.65552 2.45002V1.80558H3.9833V2.45002H3.65552ZM3.65552 6.31669V5.67224H3.9833V6.31669H3.65552ZM3.65552 9.3778V8.73336H3.9833V9.3778H3.65552ZM3.65552 12.9222V12.2778H3.9833V12.9222H3.65552ZM3.65552 15.5V15.1778H3.9833V15.5H3.65552ZM5.29441 15.5V15.1778H5.62218V15.5H5.29441ZM6.11385 14.5334V13.8889H6.27774V14.5334H6.11385ZM6.11385 9.3778V8.73336H6.27774V9.3778H6.11385ZM6.11385 6.31669V5.67224H6.44163V6.31669H6.11385ZM6.11385 2.45002V1.80558H6.27774V2.45002H6.11385Z" fill="#CC0000"/>
<path d="M4.80277 5.67223H5.13055V5.02779H5.45833V4.38335H5.78611V3.7389H5.45833V3.09446H5.13055V2.45001H4.80277V3.09446H4.47499V3.7389H4.14722V4.38335H4.47499V5.02779H4.80277V5.67223Z" fill="white"/>
<path d="M4.80273 4.38334H5.13051V3.73889H4.80273V4.38334Z" fill="#CC0000"/>
<path d="M5.78603 8.73338H5.94992V8.25004H6.11381V7.76671H6.2777V7.28338H6.11381V6.80004H5.94992V6.31671H5.78603V6.80004H5.62214V7.28338H5.45825V7.76671H5.62214V8.25004H5.78603V8.73338Z" fill="#CC0000"/>
<path d="M5.78601 7.28339H5.9499V7.76672H5.78601V7.28339Z" fill="white"/>
<path d="M4.14724 8.73338H4.31112V8.25004H4.47501V7.76671H4.6389V7.28338H4.47501V6.80004H4.31112V6.31671H4.14724V6.80004H3.98335V7.28338H3.81946V7.76671H3.98335V8.25004H4.14724V8.73338Z" fill="#CC0000"/>
<path d="M4.14722 7.28339H4.31111V7.76672H4.14722V7.28339Z" fill="white"/>
<path d="M6.27768 15.5V15.6611H6.44157V15.9834H6.60546V16.3056H6.93324V15.9834H6.76935V15.6611H6.60546V15.5H6.27768ZM7.91657 15.5V15.8223H8.24435V16.3056H8.40824V16.7889H8.73601V17.2723H8.8999V17.9167H8.57212V17.4334H8.24435V16.95H7.91657V16.4667H7.75268V16.95H7.4249V17.4334H7.09712V17.9167H6.76935V18.4H6.44157V19.0445H6.76935V19.85H7.09712L7.09712 20.4945H7.4249L7.4249 19.6889H7.26101V18.8834H7.4249V18.2389H7.75268V17.5945H7.91657V18.2389H8.24435V18.8834H8.57212V19.6889H8.73601V20.3334H8.57212V20.9778H8.24435V21.6223H8.08046L8.08046 22.2667H7.75268V22.9112H7.4249V22.2667H7.09712V21.6223H6.76935V20.9778H6.44157L6.44157 20.1723H6.27768V17.7556H6.60546V17.2723H6.93324V16.7889H7.26101V16.3056H7.4249V15.8223H7.75268V15.5H7.91657ZM7.75268 24.0389H7.4249V24.6834H7.09712V25.3278H6.76935V25.9723H6.44157V26.6167H6.27768V27.2612H6.44157V27.9056H6.76935V28.55H7.09712V29.1945H7.4249V29.8389H7.75268V29.1945H8.08046V28.55H8.40824V27.9056H8.73601V27.2612H8.8999V26.6167H8.73601V25.9723H8.40824V25.3278H8.08046V24.6834H7.75268V24.0389ZM8.8999 28.55V29.1945H8.57212V28.55H8.8999ZM8.8999 24.6834V25.3278H8.57212V24.6834H8.8999ZM8.8999 21.6223V22.2667H8.57212V21.6223H8.8999ZM8.8999 18.0778V18.7223H8.57212V18.0778H8.8999ZM8.8999 15.5V15.8223H8.57212V15.5H8.8999ZM7.26101 15.5V15.8223H6.93324V15.5H7.26101ZM6.44157 16.4667V17.1112H6.27768V16.4667H6.44157ZM6.44157 21.6223V22.2667H6.27768V21.6223H6.44157ZM6.44157 24.6834V25.3278H6.11379V24.6834H6.44157ZM6.44157 28.55V29.1945H6.27768V28.55H6.44157Z" fill="#CC0000"/>
<path d="M7.75265 25.3278H7.42487V25.9723H7.09709V26.6167H6.76931V27.2612H7.09709V27.9056H7.42487V28.55H7.75265V27.9056H8.08043V27.2612H8.4082V26.6167H8.08043V25.9723H7.75265V25.3278Z" fill="white"/>
<path d="M7.75269 26.6167H7.42491V27.2612H7.75269V26.6167Z" fill="#CC0000"/>
<path d="M6.76939 22.2667H6.6055V22.75H6.44161V23.2333H6.27772V23.7167H6.44161V24.2H6.6055V24.6833H6.76939V24.2H6.93328V23.7167H7.09717V23.2333H6.93328V22.75H6.76939V22.2667Z" fill="#CC0000"/>
<path d="M6.76941 23.7167H6.60552V23.2333H6.76941V23.7167Z" fill="white"/>
<path d="M8.40818 22.2667H8.2443V22.75H8.08041V23.2333H7.91652V23.7167H8.08041V24.2H8.2443V24.6833H8.40818V24.2H8.57207V23.7167H8.73596V23.2333H8.57207V22.75H8.40818V22.2667Z" fill="#CC0000"/>
<path d="M8.4082 23.7167H8.24431V23.2333H8.4082V23.7167Z" fill="white"/>
<path d="M6.27774 15.5V15.6611H6.11385V15.9833H5.94996V16.3055H5.62218V15.9833H5.78607V15.6611H5.94996V15.5H6.27774ZM4.63885 15.5V15.8222H4.31107V16.3055H4.14718V16.7889H3.81941V17.2722H3.65552V17.9166H3.9833V17.4333H4.31107V16.95H4.63885V16.4666H4.80274V16.95H5.13052V17.4333H5.4583V17.9166H5.78607V18.4H6.11385V19.0444H5.78607V19.85H5.4583V20.4944H5.13052V19.6889H5.29441V18.8833H5.13052V18.2389H4.80274V17.5944H4.63885V18.2389H4.31107V18.8833H3.9833V19.6889H3.81941V20.3333H3.9833V20.9778H4.31107V21.6222H4.47496V22.2666H4.80274V22.9111H5.13052V22.2666H5.4583V21.6222H5.78607V20.9778H6.11385V20.1722H6.27774V17.7555H5.94996V17.2722H5.62218V16.7889H5.29441V16.3055H5.13052V15.8222H4.80274V15.5H4.63885ZM4.80274 24.0389H5.13052V24.6833H5.4583V25.3278H5.78607V25.9722H6.11385V26.6166H6.27774V27.2611H6.11385V27.9055H5.78607V28.55H5.4583V29.1944H5.13052V29.8389H4.80274V29.1944H4.47496V28.55H4.14718V27.9055H3.81941V27.2611H3.65552V26.6166H3.81941V25.9722H4.14718V25.3278H4.47496V24.6833H4.80274V24.0389ZM3.65552 28.55V29.1944H3.9833V28.55H3.65552ZM3.65552 24.6833V25.3278H3.9833V24.6833H3.65552ZM3.65552 21.6222V22.2666H3.9833V21.6222H3.65552ZM3.65552 18.0778V18.7222H3.9833V18.0778H3.65552ZM3.65552 15.5V15.8222H3.9833V15.5H3.65552ZM5.29441 15.5V15.8222H5.62218V15.5H5.29441ZM6.11385 16.4666V17.1111H6.27774V16.4666H6.11385ZM6.11385 21.6222V22.2666H6.27774V21.6222H6.11385ZM6.11385 24.6833V25.3278H6.44163V24.6833H6.11385ZM6.11385 28.55V29.1944H6.27774V28.55H6.11385Z" fill="#CC0000"/>
<path d="M4.80277 25.3278H5.13055V25.9722H5.45833V26.6167H5.78611V27.2611H5.45833V27.9055H5.13055V28.55H4.80277V27.9055H4.47499V27.2611H4.14722V26.6167H4.47499V25.9722H4.80277V25.3278Z" fill="white"/>
<path d="M4.80273 26.6167H5.13051V27.2611H4.80273V26.6167Z" fill="#CC0000"/>
<path d="M5.78603 22.2666H5.94992V22.75H6.11381V23.2333H6.2777V23.7166H6.11381V24.2H5.94992V24.6833H5.78603V24.2H5.62214V23.7166H5.45825V23.2333H5.62214V22.75H5.78603V22.2666Z" fill="#CC0000"/>
<path d="M5.78601 23.7166H5.9499V23.2333H5.78601V23.7166Z" fill="white"/>
<path d="M4.14724 22.2666H4.31112V22.75H4.47501V23.2333H4.6389V23.7166H4.47501V24.2H4.31112V24.6833H4.14724V24.2H3.98335V23.7166H3.81946V23.2333H3.98335V22.75H4.14724V22.2666Z" fill="#CC0000"/>
<path d="M4.14722 23.7166H4.31111V23.2333H4.14722V23.7166Z" fill="white"/>
<path d="M6.27768 15.5V15.3389H6.44157V15.0166H6.60546V14.6944H6.93324V15.0166H6.76935V15.3389H6.60546V15.5H6.27768ZM7.91657 15.5V15.1777H8.24435V14.6944H8.40824V14.2111H8.73601V13.7277H8.8999V13.0833H8.57212V13.5666H8.24435V14.05H7.91657V14.5333H7.75268V14.05H7.4249V13.5666H7.09712V13.0833H6.76935V12.6H6.44157V11.9555H6.76935V11.15H7.09712L7.09712 10.5055H7.4249L7.4249 11.3111H7.26101V12.1166H7.4249V12.7611H7.75268V13.4055H7.91657V12.7611H8.24435V12.1166H8.57212V11.3111H8.73601V10.6666H8.57212V10.0222H8.24435V9.37774H8.08046L8.08046 8.73329H7.75268V8.08885H7.4249V8.73329H7.09712V9.37774H6.76935V10.0222H6.44157L6.44157 10.8277H6.27768V13.2444H6.60546V13.7277H6.93324V14.2111H7.26101V14.6944H7.4249V15.1777H7.75268V15.5H7.91657ZM7.75268 6.96107H7.4249V6.31663H7.09712V5.67218H6.76935V5.02774H6.44157V4.38329H6.27768V3.73885H6.44157V3.09441H6.76935V2.44996H7.09712V1.80552H7.4249V1.16107H7.75268V1.80552H8.08046V2.44996H8.40824V3.09441H8.73601V3.73885H8.8999V4.38329H8.73601V5.02774H8.40824V5.67218H8.08046V6.31663H7.75268V6.96107ZM8.8999 2.44996V1.80552H8.57212V2.44996H8.8999ZM8.8999 6.31663V5.67218H8.57212V6.31663H8.8999ZM8.8999 9.37774V8.73329H8.57212V9.37774H8.8999ZM8.8999 12.9222V12.2777H8.57212V12.9222H8.8999ZM8.8999 15.5V15.1777H8.57212V15.5H8.8999ZM7.26101 15.5V15.1777H6.93324V15.5H7.26101ZM6.44157 14.5333V13.8888H6.27768V14.5333H6.44157ZM6.44157 9.37774V8.73329H6.27768V9.37774H6.44157ZM6.44157 6.31663V5.67218H6.11379V6.31663H6.44157ZM6.44157 2.44996V1.80552H6.27768V2.44996H6.44157Z" fill="#CC0000"/>
<path d="M7.75265 5.67217H7.42487V5.02773H7.09709V4.38328H6.76931V3.73884H7.09709V3.0944H7.42487V2.44995H7.75265V3.0944H8.08043V3.73884H8.4082V4.38328H8.08043V5.02773H7.75265V5.67217Z" fill="white"/>
<path d="M7.75269 4.38327H7.42491V3.73883H7.75269V4.38327Z" fill="#CC0000"/>
<path d="M6.76939 8.73332H6.6055V8.24998H6.44161V7.76665H6.27772V7.28332H6.44161V6.79998H6.6055V6.31665H6.76939V6.79998H6.93328V7.28332H7.09717V7.76665H6.93328V8.24998H6.76939V8.73332Z" fill="#CC0000"/>
<path d="M6.76941 7.28333H6.60552V7.76666H6.76941V7.28333Z" fill="white"/>
<path d="M8.40818 8.73332H8.2443V8.24998H8.08041V7.76665H7.91652V7.28332H8.08041V6.79998H8.2443V6.31665H8.40818V6.79998H8.57207V7.28332H8.73596V7.76665H8.57207V8.24998H8.40818V8.73332Z" fill="#CC0000"/>
<path d="M8.4082 7.28333H8.24431V7.76666H8.4082V7.28333Z" fill="white"/>
</g>
</g>
</g>
<defs>
<filter id="filter0_dd_24_230" x="0" y="0" width="48" height="34" filterUnits="userSpaceOnUse" color-interpolation-filters="sRGB">
<feFlood flood-opacity="0" result="BackgroundImageFix"/>
<feColorMatrix in="SourceAlpha" type="matrix" values="0 0 0 0 0 0 0 0 0 0 0 0 0 0 0 0 0 0 127 0" result="hardAlpha"/>
<feOffset dy="1"/>
<feGaussianBlur stdDeviation="1"/>
<feColorMatrix type="matrix" values="0 0 0 0 0.0627451 0 0 0 0 0.0941176 0 0 0 0 0.156863 0 0 0 0.06 0"/>
<feBlend mode="normal" in2="BackgroundImageFix" result="effect1_dropShadow_24_230"/>
<feColorMatrix in="SourceAlpha" type="matrix" values="0 0 0 0 0 0 0 0 0 0 0 0 0 0 0 0 0 0 127 0" result="hardAlpha"/>
<feOffset dy="1"/>
<feGaussianBlur stdDeviation="1.5"/>
<feColorMatrix type="matrix" values="0 0 0 0 0.0627451 0 0 0 0 0.0941176 0 0 0 0 0.156863 0 0 0 0.1 0"/>
<feBlend mode="normal" in2="effect1_dropShadow_24_230" result="effect2_dropShadow_24_230"/>
<feBlend mode="normal" in="SourceGraphic" in2="effect2_dropShadow_24_230" result="shape"/>
</filter>
<clipPath id="clip0_24_230">
<rect x="3" y="2" width="42" height="28" rx="2" fill="white"/>
</clipPath>
<clipPath id="clip1_24_230">
<rect width="59" height="29" fill="white" transform="translate(3 1)"/>
</clipPath>
</defs>
</svg>
