<svg width="30" height="30" viewBox="0 0 30 30" fill="none" xmlns="http://www.w3.org/2000/svg">
<path d="M29.74 5H4.26C4.117 5 4 5.10227 4 5.22727V7.04545C4 7.17045 4.117 7.27273 4.26 7.27273H29.74C29.883 7.27273 30 7.17045 30 7.04545V5.22727C30 5.10227 29.883 5 29.74 5ZM29.74 22.7273H4.26C4.117 22.7273 4 22.8295 4 22.9545V24.7727C4 24.8977 4.117 25 4.26 25H29.74C29.883 25 30 24.8977 30 24.7727V22.9545C30 22.8295 29.883 22.7273 29.74 22.7273ZM29.74 13.8636H4.26C4.117 13.8636 4 13.9659 4 14.0909V15.9091C4 16.0341 4.117 16.1364 4.26 16.1364H29.74C29.883 16.1364 30 16.0341 30 15.9091V14.0909C30 13.9659 29.883 13.8636 29.74 13.8636Z" fill="white"/>
</svg>
