<svg width="42" height="42" viewBox="0 0 42 42" fill="none" xmlns="http://www.w3.org/2000/svg">
<path d="M21 0.504395L0.6875 10.6606V31.3394L21 41.4956L41.3125 31.3394V30.375V10.6606L21 0.504395ZM21 3.99561L38.1875 12.5894V29.4106L21 38.0044L3.8125 29.4106V12.5894L21 3.99561ZM16.125 14.75V16.3125H14.5625V19.4375H16.125V22.5625H14.5625V25.6875H16.125V27.25H19.25V25.6875H22.375V27.25H25.5V25.6875H27.0625V22.5625H25.5V19.4375H27.0625V16.3125H25.5V14.75H22.375V16.3125H19.25V14.75H16.125ZM19.25 19.4375H22.375V22.5625H19.25V19.4375Z" fill="white"/>
</svg>
