<svg width="84" height="644" viewBox="0 0 84 644" fill="none" xmlns="http://www.w3.org/2000/svg">
<rect x="40" y="104" width="3" height="156" rx="1.5" fill="#9747FF"/>
<rect x="40" y="384" width="3" height="156" rx="1.5" fill="white"/>
<g filter="url(#filter0_b_1935_4804)">
<rect width="84" height="84" rx="42" fill="url(#paint0_linear_1935_4804)" fill-opacity="0.6"/>
<rect x="0.5" y="0.5" width="83" height="83" rx="41.5" stroke="#3B1E61"/>
</g>
<path d="M51.9437 42.5473C55.3678 42.5473 58.1436 39.7837 58.1436 36.3745C58.1436 32.9653 55.3678 30.2017 51.9437 30.2017C48.5195 30.2017 45.7437 32.9653 45.7437 36.3745C45.7437 39.7837 48.5195 42.5473 51.9437 42.5473Z" fill="#9747FF"/>
<path d="M51.9436 45.1709C45.9047 45.1709 40.9051 49.5946 40.0341 55.3594C39.8877 56.3141 40.6636 57.1668 41.6298 57.1668H62.2574C63.2236 57.1668 63.9996 56.3141 63.8532 55.3594C62.9748 49.5946 57.9752 45.1709 51.9436 45.1709Z" fill="#9747FF"/>
<path d="M22.0022 54.7133L22.0023 54.7122C23.188 46.8799 29.9846 40.875 38.1828 40.875C46.3877 40.875 53.1771 46.8792 54.3705 54.7116C54.5202 55.7328 53.6914 56.6663 52.6251 56.6663H23.7479C22.6727 56.6663 21.8468 55.7247 22.0022 54.7133Z" fill="url(#paint1_linear_1935_4804)" stroke="url(#paint2_linear_1935_4804)"/>
<path d="M46.357 28.0658C46.357 32.5572 42.6993 36.202 38.1828 36.202C33.6663 36.202 30.0087 32.5572 30.0087 28.0658C30.0087 23.5744 33.6663 19.9297 38.1828 19.9297C42.6993 19.9297 46.357 23.5744 46.357 28.0658Z" fill="url(#paint3_linear_1935_4804)" stroke="url(#paint4_linear_1935_4804)"/>
<g filter="url(#filter1_b_1935_4804)">
<rect y="280" width="84" height="84" rx="42" fill="url(#paint5_linear_1935_4804)" fill-opacity="0.6"/>
<rect x="0.5" y="280.5" width="83" height="83" rx="41.5" stroke="#3B1E61"/>
</g>
<path d="M47.1148 299H29.8872C23.6383 299 20 302.649 20 308.901V330.078C20 336.433 23.6383 340 29.8872 340H47.1148C53.4644 340 57 336.433 57 330.078V308.901C57 302.649 53.4644 299 47.1148 299Z" fill="#9747FF"/>
<path d="M41.8872 302.5H59.1148C62.1947 302.5 64.5236 303.383 66.0833 304.958C67.6437 306.533 68.5 308.868 68.5 311.901V333.078C68.5 336.165 67.6427 338.503 66.0841 340.069C64.5258 341.636 62.1977 342.5 59.1148 342.5H41.8872C38.8566 342.5 36.5261 341.637 34.9534 340.068C33.3808 338.5 32.5 336.161 32.5 333.078V311.901C32.5 308.872 33.3798 306.537 34.9542 304.959C36.5284 303.382 38.8596 302.5 41.8872 302.5Z" fill="url(#paint6_linear_1935_4804)" stroke="url(#paint7_linear_1935_4804)"/>
<g filter="url(#filter2_bd_1935_4804)">
<mask id="path-13-inside-1_1935_4804" fill="white">
<path fill-rule="evenodd" clip-rule="evenodd" d="M42.4523 311.533C42.4467 311.533 42.4421 311.537 42.4421 311.543V311.543C42.4421 311.549 42.4374 311.553 42.4318 311.553C41.5506 311.559 40.8388 312.274 40.8388 313.152C40.8388 314.034 41.5561 314.751 42.4421 314.751H48.5861C49.4721 314.751 50.1915 314.034 50.1915 313.13C50.1915 312.25 49.4721 311.533 48.5861 311.533H42.4523ZM58.5576 324.018H42.4421C41.5561 324.018 40.8388 323.3 40.8388 322.419C40.8388 321.537 41.5561 320.818 42.4421 320.818H58.5576C59.4415 320.818 60.161 321.537 60.161 322.419C60.161 323.3 59.4415 324.018 58.5576 324.018ZM58.5578 333.386H42.4423C41.8256 333.468 41.2295 333.161 40.9006 332.648C40.5717 332.115 40.5717 331.439 40.9006 330.926C41.2295 330.393 41.8256 330.106 42.4423 330.168H58.5578C59.378 330.25 59.9967 330.947 59.9967 331.787C59.9967 332.605 59.378 333.304 58.5578 333.386Z"/>
</mask>
<path fill-rule="evenodd" clip-rule="evenodd" d="M42.4523 311.533C42.4467 311.533 42.4421 311.537 42.4421 311.543V311.543C42.4421 311.549 42.4374 311.553 42.4318 311.553C41.5506 311.559 40.8388 312.274 40.8388 313.152C40.8388 314.034 41.5561 314.751 42.4421 314.751H48.5861C49.4721 314.751 50.1915 314.034 50.1915 313.13C50.1915 312.25 49.4721 311.533 48.5861 311.533H42.4523ZM58.5576 324.018H42.4421C41.5561 324.018 40.8388 323.3 40.8388 322.419C40.8388 321.537 41.5561 320.818 42.4421 320.818H58.5576C59.4415 320.818 60.161 321.537 60.161 322.419C60.161 323.3 59.4415 324.018 58.5576 324.018ZM58.5578 333.386H42.4423C41.8256 333.468 41.2295 333.161 40.9006 332.648C40.5717 332.115 40.5717 331.439 40.9006 330.926C41.2295 330.393 41.8256 330.106 42.4423 330.168H58.5578C59.378 330.25 59.9967 330.947 59.9967 331.787C59.9967 332.605 59.378 333.304 58.5578 333.386Z" fill="url(#paint8_linear_1935_4804)"/>
<path d="M42.4423 333.386V332.386H42.3761L42.3105 332.395L42.4423 333.386ZM58.5578 333.386V334.386H58.6077L58.6573 334.381L58.5578 333.386ZM40.9006 332.648L40.0496 333.174L40.0542 333.181L40.059 333.189L40.9006 332.648ZM40.9006 330.926L41.7422 331.467L41.747 331.459L41.7516 331.452L40.9006 330.926ZM42.4423 330.168L42.343 331.163L42.3925 331.168H42.4423V330.168ZM58.5578 330.168L58.6573 329.173L58.6077 329.168H58.5578V330.168ZM42.4318 311.553L42.4255 310.553L42.4318 311.553ZM41.8388 313.152C41.8388 312.826 42.1046 312.555 42.4381 312.553L42.4255 310.553C40.9965 310.562 39.8388 311.722 39.8388 313.152H41.8388ZM42.4421 313.751C42.1067 313.751 41.8388 313.48 41.8388 313.152H39.8388C39.8388 314.588 41.0056 315.751 42.4421 315.751V313.751ZM48.5861 313.751H42.4421V315.751H48.5861V313.751ZM49.1915 313.13C49.1915 313.487 48.9141 313.751 48.5861 313.751V315.751C50.0301 315.751 51.1915 314.58 51.1915 313.13H49.1915ZM48.5861 312.533C48.924 312.533 49.1915 312.807 49.1915 313.13H51.1915C51.1915 311.694 50.0202 310.533 48.5861 310.533V312.533ZM42.4523 312.533H48.5861V310.533H42.4523V312.533ZM42.4421 325.018H58.5576V323.018H42.4421V325.018ZM39.8388 322.419C39.8388 323.854 41.0056 325.018 42.4421 325.018V323.018C42.1067 323.018 41.8388 322.746 41.8388 322.419H39.8388ZM42.4421 319.818C41.0039 319.818 39.8388 320.985 39.8388 322.419H41.8388C41.8388 322.09 42.1084 321.818 42.4421 321.818V319.818ZM58.5576 319.818H42.4421V321.818H58.5576V319.818ZM61.161 322.419C61.161 320.984 59.9929 319.818 58.5576 319.818V321.818C58.8901 321.818 59.161 322.091 59.161 322.419H61.161ZM58.5576 325.018C59.9913 325.018 61.161 323.855 61.161 322.419H59.161C59.161 322.746 58.8918 323.018 58.5576 323.018V325.018ZM42.4423 334.386H58.5578V332.386H42.4423V334.386ZM40.059 333.189C40.5793 333.999 41.5408 334.515 42.5741 334.378L42.3105 332.395C42.1104 332.422 41.8797 332.323 41.7422 332.108L40.059 333.189ZM40.059 330.386C39.5149 331.234 39.5261 332.325 40.0496 333.174L41.7516 332.123C41.6174 331.906 41.6285 331.644 41.7422 331.467L40.059 330.386ZM42.5415 329.173C41.5512 329.074 40.5829 329.537 40.0496 330.401L41.7516 331.452C41.8761 331.25 42.1 331.139 42.343 331.163L42.5415 329.173ZM58.5578 329.168H42.4423V331.168H58.5578V329.168ZM60.9967 331.787C60.9967 330.45 60.0052 329.308 58.6573 329.173L58.4583 331.163C58.7508 331.192 58.9967 331.444 58.9967 331.787H60.9967ZM58.6573 334.381C59.9982 334.247 60.9967 333.11 60.9967 331.787H58.9967C58.9967 332.101 58.7578 332.361 58.4583 332.391L58.6573 334.381ZM43.4421 311.543C43.4421 312.09 42.999 312.533 42.4523 312.533V310.533C41.8944 310.533 41.4421 310.985 41.4421 311.543H43.4421ZM41.4421 311.543C41.4421 310.988 41.8921 310.557 42.4255 310.553L42.4381 312.553C42.9828 312.55 43.4421 312.109 43.4421 311.543H41.4421Z" fill="url(#paint9_linear_1935_4804)" mask="url(#path-13-inside-1_1935_4804)"/>
</g>
<g filter="url(#filter3_b_1935_4804)">
<rect y="560" width="84" height="84" rx="42" fill="url(#paint10_linear_1935_4804)" fill-opacity="0.6"/>
<rect x="0.5" y="560.5" width="83" height="83" rx="41.5" stroke="#3B1E61"/>
</g>
<path d="M60.9736 593L52.7964 593C52.7792 593 52.762 593 52.7447 593C49.572 593 47 590.538 47 587.5C47 584.462 49.572 582 52.7447 582C55.4725 582 57.7562 583.82 58.3431 586.261H58.4619C59.1535 585.707 60.0446 585.373 61.017 585.373C63.2168 585.373 65 587.081 65 589.187C65 591.293 63.2168 593 61.017 593C61.0025 593 60.988 593 60.9736 593Z" fill="#9747FF"/>
<path d="M45.6182 619V619H30.6268V619C30.5952 619 30.5636 619 30.5319 619C24.7153 619 20 614.523 20 609C20 603.477 24.7153 599 30.5319 599C35.5329 599 39.7197 602.31 40.7956 606.748H41.0135C42.2814 605.74 43.915 605.133 45.6979 605.133C49.7307 605.133 53 608.237 53 612.067C53 615.896 49.7307 619 45.6979 619C45.6713 619 45.6447 619 45.6182 619Z" fill="#9747FF"/>
<path d="M32 614.746H31.5V623.114C31.5 624.086 32.4824 624.804 33.4055 624.376L38.0603 622.219C38.7016 621.922 39.3948 621.768 40.0951 621.768H49.9049C50.6052 621.768 51.2984 621.922 51.9397 622.219L56.5945 624.376C57.5176 624.804 58.5 624.086 58.5 623.114V614.746C58.5 614.726 58.4995 613.5 58.0571 612.169C57.6167 610.843 56.6915 609.29 54.7698 608.862C54.443 608.789 54.2126 608.516 54.2096 608.237C54.0325 591.604 49.5141 583.656 46.9704 580.492C46.4511 579.846 45.7372 579.5 45 579.5C44.2628 579.5 43.549 579.846 43.0296 580.492C40.4859 583.656 35.9675 591.604 35.7904 608.237C35.7874 608.516 35.557 608.789 35.2302 608.862C33.3085 609.29 32.3833 610.843 31.9429 612.169C31.7203 612.839 31.6103 613.479 31.5555 613.949C31.528 614.185 31.5142 614.381 31.5072 614.519C31.5037 614.588 31.5019 614.643 31.501 614.681C31.5005 614.701 31.5003 614.716 31.5001 614.727L31.5 614.74L31.5 614.744L31.5 614.745L31.5 614.745C31.5 614.746 31.5 614.746 32 614.746Z" fill="url(#paint11_linear_1935_4804)" stroke="url(#paint12_linear_1935_4804)"/>
<g filter="url(#filter4_d_1935_4804)">
<ellipse cx="2.5" cy="3.5" rx="2.5" ry="3.5" transform="matrix(1 0 0 -1 42 602)" fill="url(#paint13_linear_1935_4804)"/>
<path d="M46.5 598.5C46.5 597.626 46.2461 596.855 45.8609 596.316C45.475 595.775 44.987 595.5 44.5 595.5C44.013 595.5 43.525 595.775 43.1391 596.316C42.7539 596.855 42.5 597.626 42.5 598.5C42.5 599.374 42.7539 600.145 43.1391 600.684C43.525 601.225 44.013 601.5 44.5 601.5C44.987 601.5 45.475 601.225 45.8609 600.684C46.2461 600.145 46.5 599.374 46.5 598.5Z" stroke="white" stroke-opacity="0.14"/>
</g>
<defs>
<filter id="filter0_b_1935_4804" x="-4" y="-4" width="92" height="92" filterUnits="userSpaceOnUse" color-interpolation-filters="sRGB">
<feFlood flood-opacity="0" result="BackgroundImageFix"/>
<feGaussianBlur in="BackgroundImageFix" stdDeviation="2"/>
<feComposite in2="SourceAlpha" operator="in" result="effect1_backgroundBlur_1935_4804"/>
<feBlend mode="normal" in="SourceGraphic" in2="effect1_backgroundBlur_1935_4804" result="shape"/>
</filter>
<filter id="filter1_b_1935_4804" x="-4" y="276" width="92" height="92" filterUnits="userSpaceOnUse" color-interpolation-filters="sRGB">
<feFlood flood-opacity="0" result="BackgroundImageFix"/>
<feGaussianBlur in="BackgroundImageFix" stdDeviation="2"/>
<feComposite in2="SourceAlpha" operator="in" result="effect1_backgroundBlur_1935_4804"/>
<feBlend mode="normal" in="SourceGraphic" in2="effect1_backgroundBlur_1935_4804" result="shape"/>
</filter>
<filter id="filter2_bd_1935_4804" x="25.6539" y="296.533" width="49.507" height="51.8667" filterUnits="userSpaceOnUse" color-interpolation-filters="sRGB">
<feFlood flood-opacity="0" result="BackgroundImageFix"/>
<feGaussianBlur in="BackgroundImageFix" stdDeviation="7.5"/>
<feComposite in2="SourceAlpha" operator="in" result="effect1_backgroundBlur_1935_4804"/>
<feColorMatrix in="SourceAlpha" type="matrix" values="0 0 0 0 0 0 0 0 0 0 0 0 0 0 0 0 0 0 127 0" result="hardAlpha"/>
<feOffset dx="5" dy="5"/>
<feGaussianBlur stdDeviation="5"/>
<feColorMatrix type="matrix" values="0 0 0 0 0.577356 0 0 0 0 0.359375 0 0 0 0 0.9375 0 0 0 0.5 0"/>
<feBlend mode="normal" in2="effect1_backgroundBlur_1935_4804" result="effect2_dropShadow_1935_4804"/>
<feBlend mode="normal" in="SourceGraphic" in2="effect2_dropShadow_1935_4804" result="shape"/>
</filter>
<filter id="filter3_b_1935_4804" x="-4" y="556" width="92" height="92" filterUnits="userSpaceOnUse" color-interpolation-filters="sRGB">
<feFlood flood-opacity="0" result="BackgroundImageFix"/>
<feGaussianBlur in="BackgroundImageFix" stdDeviation="2"/>
<feComposite in2="SourceAlpha" operator="in" result="effect1_backgroundBlur_1935_4804"/>
<feBlend mode="normal" in="SourceGraphic" in2="effect1_backgroundBlur_1935_4804" result="shape"/>
</filter>
<filter id="filter4_d_1935_4804" x="36" y="595" width="17" height="19" filterUnits="userSpaceOnUse" color-interpolation-filters="sRGB">
<feFlood flood-opacity="0" result="BackgroundImageFix"/>
<feColorMatrix in="SourceAlpha" type="matrix" values="0 0 0 0 0 0 0 0 0 0 0 0 0 0 0 0 0 0 127 0" result="hardAlpha"/>
<feOffset dy="6"/>
<feGaussianBlur stdDeviation="3"/>
<feComposite in2="hardAlpha" operator="out"/>
<feColorMatrix type="matrix" values="0 0 0 0 0.635294 0 0 0 0 0.294118 0 0 0 0 0.894118 0 0 0 0.27 0"/>
<feBlend mode="normal" in2="BackgroundImageFix" result="effect1_dropShadow_1935_4804"/>
<feBlend mode="normal" in="SourceGraphic" in2="effect1_dropShadow_1935_4804" result="shape"/>
</filter>
<linearGradient id="paint0_linear_1935_4804" x1="2.18033" y1="9.62254e-07" x2="60.6788" y2="71.0836" gradientUnits="userSpaceOnUse">
<stop stop-color="#2A2B3A"/>
<stop offset="1" stop-color="#090B0C"/>
</linearGradient>
<linearGradient id="paint1_linear_1935_4804" x1="25.4172" y1="41.8325" x2="29.0478" y2="59.0888" gradientUnits="userSpaceOnUse">
<stop stop-color="#9747FF"/>
<stop offset="0.989661" stop-color="#9747FF" stop-opacity="0.33"/>
</linearGradient>
<linearGradient id="paint2_linear_1935_4804" x1="38.1856" y1="40.375" x2="38.1856" y2="57.1663" gradientUnits="userSpaceOnUse">
<stop stop-color="white"/>
<stop offset="1" stop-color="#E5E5E5" stop-opacity="0"/>
</linearGradient>
<linearGradient id="paint3_linear_1935_4804" x1="31.5518" y1="20.929" x2="38.1335" y2="36.7226" gradientUnits="userSpaceOnUse">
<stop stop-color="#9747FF"/>
<stop offset="0.989661" stop-color="#9747FF" stop-opacity="0.33"/>
</linearGradient>
<linearGradient id="paint4_linear_1935_4804" x1="38.1828" y1="19.4297" x2="38.1828" y2="36.702" gradientUnits="userSpaceOnUse">
<stop stop-color="white"/>
<stop offset="1" stop-color="#E5E5E5" stop-opacity="0"/>
</linearGradient>
<linearGradient id="paint5_linear_1935_4804" x1="2.18033" y1="280" x2="60.6788" y2="351.084" gradientUnits="userSpaceOnUse">
<stop stop-color="#2A2B3A"/>
<stop offset="1" stop-color="#090B0C"/>
</linearGradient>
<linearGradient id="paint6_linear_1935_4804" x1="36.3576" y1="305.559" x2="53.1525" y2="341.77" gradientUnits="userSpaceOnUse">
<stop stop-color="#9747FF"/>
<stop offset="0.989661" stop-color="#9747FF" stop-opacity="0.33"/>
</linearGradient>
<linearGradient id="paint7_linear_1935_4804" x1="50.5" y1="302" x2="50.5" y2="343" gradientUnits="userSpaceOnUse">
<stop stop-color="white"/>
<stop offset="1" stop-color="#E5E5E5" stop-opacity="0"/>
</linearGradient>
<linearGradient id="paint8_linear_1935_4804" x1="42.9513" y1="313.431" x2="51.9754" y2="332.664" gradientUnits="userSpaceOnUse">
<stop stop-color="white"/>
<stop offset="0.989661" stop-color="white" stop-opacity="0.33"/>
</linearGradient>
<linearGradient id="paint9_linear_1935_4804" x1="50.4075" y1="311.533" x2="50.4075" y2="333.4" gradientUnits="userSpaceOnUse">
<stop stop-color="white"/>
<stop offset="1" stop-color="#E5E5E5" stop-opacity="0"/>
</linearGradient>
<linearGradient id="paint10_linear_1935_4804" x1="2.18033" y1="560" x2="60.6788" y2="631.084" gradientUnits="userSpaceOnUse">
<stop stop-color="#2A2B3A"/>
<stop offset="1" stop-color="#090B0C"/>
</linearGradient>
<linearGradient id="paint11_linear_1935_4804" x1="35.0621" y1="583.819" x2="57.3346" y2="615.263" gradientUnits="userSpaceOnUse">
<stop stop-color="#9747FF"/>
<stop offset="0.989661" stop-color="#9747FF" stop-opacity="0.33"/>
</linearGradient>
<linearGradient id="paint12_linear_1935_4804" x1="45" y1="580" x2="45" y2="624" gradientUnits="userSpaceOnUse">
<stop stop-color="white"/>
<stop offset="1" stop-color="#E5E5E5" stop-opacity="0"/>
</linearGradient>
<linearGradient id="paint13_linear_1935_4804" x1="-0.128892" y1="5.06537" x2="5.18988" y2="5.04609" gradientUnits="userSpaceOnUse">
<stop stop-color="#E9C7FC"/>
<stop offset="1" stop-color="#FEFCFF"/>
</linearGradient>
</defs>
</svg>
