<svg width="60" height="60" viewBox="0 0 60 60" fill="none" xmlns="http://www.w3.org/2000/svg">
<path d="M55.406 25.5006C54.2125 24.6778 51.4774 24.3693 49.3392 24.7807C49.0908 22.7238 47.9469 20.9242 45.9577 19.3301L44.8141 18.5073L44.0183 19.69C43.0239 21.2327 42.5266 23.3925 42.6757 25.4494C42.7254 26.1691 42.974 27.4547 43.7199 28.586C43.0239 28.9974 41.5817 29.5116 39.6922 29.5116H3.73907L3.63969 29.923C3.29146 31.9797 3.29146 38.4073 7.36915 43.3437C10.4523 47.0974 15.0272 49 21.0442 49C34.0727 49 43.7199 42.7778 48.2452 31.5169C50.0354 31.5683 53.8645 31.5169 55.804 27.6602C55.8536 27.5573 55.953 27.3516 56.301 26.5805L56.5 26.1691L55.406 25.5006ZM32.4814 11H27.0117V16.1421H32.4814V11ZM32.4814 17.1705H27.0117V22.3126H32.4814V17.1703V17.1705ZM26.0169 17.1705H20.5471V22.3126H26.0169V17.1703V17.1705ZM19.5523 17.1705H14.0824V22.3126H19.5523V17.1703V17.1705ZM13.0878 23.3411H7.6178V28.4831H13.0876V23.3409L13.0878 23.3411ZM19.5523 23.3411H14.0824V28.4831H19.5523V23.3409V23.3411ZM26.0169 23.3411H20.5471V28.4831H26.0169V23.3409V23.3411ZM32.4817 23.3411H27.0115V28.4831H32.4817V23.3409V23.3411ZM38.9462 23.3411H33.476V28.4831H38.9462V23.3409V23.3411Z" fill="#2396ED"/>
</svg>
