<svg width="60" height="60" viewBox="0 0 60 60" fill="none" xmlns="http://www.w3.org/2000/svg">
<path d="M30 15C23.3334 15 19.1666 18.3334 17.5 25C20 21.6666 22.9166 20.4166 26.25 21.25C28.1518 21.7254 29.5111 23.1053 31.0158 24.6324C33.467 27.1205 36.3037 30 42.5 30C49.1666 30 53.3334 26.6666 55 20C52.5 23.3334 49.5834 24.5834 46.25 23.75C44.3482 23.2746 42.9889 21.8947 41.4842 20.3676C39.033 17.8795 36.1963 15 30 15ZM17.5 30C10.8334 30 6.6666 33.3334 5 40C7.5 36.6666 10.4166 35.4166 13.75 36.25C15.6518 36.7254 17.0111 38.1053 18.5158 39.6324C20.967 42.1205 23.8037 45 30 45C36.6666 45 40.8334 41.6666 42.5 35C40 38.3334 37.0834 39.5834 33.75 38.75C31.8482 38.2746 30.4889 36.8947 28.9842 35.3676C26.533 32.8795 23.6963 30 17.5 30Z" fill="url(#paint0_linear_39_288)"/>
<defs>
<linearGradient id="paint0_linear_39_288" x1="3.611" y1="24.6" x2="46.7942" y2="49.4987" gradientUnits="userSpaceOnUse">
<stop stop-color="#2298BD"/>
<stop offset="1" stop-color="#0ED7B5"/>
</linearGradient>
</defs>
</svg>
