<svg width="34" height="39" viewBox="0 0 34 39" fill="none" xmlns="http://www.w3.org/2000/svg">
<path d="M1.0021 35.7133L1.00227 35.7122C2.18796 27.8799 8.98456 21.875 17.1827 21.875C25.3876 21.875 32.1771 27.8792 33.3704 35.7116C33.5201 36.7328 32.6913 37.6663 31.625 37.6663H2.7478C1.67265 37.6663 0.846676 36.7247 1.0021 35.7133Z" fill="url(#paint0_linear_231_1156)" stroke="url(#paint1_linear_231_1156)"/>
<path d="M25.3568 9.06584C25.3568 13.5572 21.6992 17.202 17.1827 17.202C12.6662 17.202 9.00854 13.5572 9.00854 9.06584C9.00854 4.57443 12.6662 0.929688 17.1827 0.929688C21.6992 0.929688 25.3568 4.57443 25.3568 9.06584Z" fill="url(#paint2_linear_231_1156)" stroke="url(#paint3_linear_231_1156)"/>
<defs>
<linearGradient id="paint0_linear_231_1156" x1="4.41711" y1="22.8325" x2="8.04768" y2="40.0888" gradientUnits="userSpaceOnUse">
<stop stop-color="white"/>
<stop offset="0.989661" stop-color="white" stop-opacity="0.33"/>
</linearGradient>
<linearGradient id="paint1_linear_231_1156" x1="17.1856" y1="21.375" x2="17.1856" y2="38.1663" gradientUnits="userSpaceOnUse">
<stop stop-color="white"/>
<stop offset="1" stop-color="#E5E5E5" stop-opacity="0"/>
</linearGradient>
<linearGradient id="paint2_linear_231_1156" x1="10.5517" y1="1.92898" x2="17.1333" y2="17.7226" gradientUnits="userSpaceOnUse">
<stop stop-color="white"/>
<stop offset="0.989661" stop-color="white" stop-opacity="0.33"/>
</linearGradient>
<linearGradient id="paint3_linear_231_1156" x1="17.1827" y1="0.429687" x2="17.1827" y2="17.702" gradientUnits="userSpaceOnUse">
<stop stop-color="white"/>
<stop offset="1" stop-color="#E5E5E5" stop-opacity="0"/>
</linearGradient>
</defs>
</svg>
